# xmcd CD database file
#
# Track frame offsets:
#	150
#	15886
#	28867
#	41942
#	57979
#	72368
#	89426
#	105196
#	120904
#	136545
#	155208
#	167504
#	182423
#
# Disc length: 2660 seconds
#
# Revision: 2
# Processed by: cddbd v1.5.2PL0 Copyright (c) Steve Scherf et al.
# Submitted via: CDex 1.60beta1-cs1
#
DISCID=9b0a620d
DTITLE=Amber Lawrence - Superheroes
DYEAR=2014
DGENRE=Country
TTITLE0=Superhero
TTITLE1=Honeysuckle
TTITLE2=Let's Take it Somewhere (In the Middle of Nowhere)
TTITLE3=Live to Tell the Tale
TTITLE4=The Love Record
TTITLE5=The Lifesaver
TTITLE6=Feel Like Flying
TTITLE7=I Will Love You
TTITLE8=25 Words or Less
TTITLE9=Little Lazy Little Crazy
TTITLE10=Cyclone Tracy
TTITLE11=These 4 Walls
TTITLE12=Because You're Worth It
EXTD=YEAR: 2014
EXTT0=
EXTT1=
EXTT2=
EXTT3=
EXTT4=
EXTT5=
EXTT6=
EXTT7=
EXTT8=
EXTT9=
EXTT10=
EXTT11=
EXTT12=
PLAYORDER=
